<svg xmlns="http://www.w3.org/2000/svg" width="24" height="24" viewBox="0 0 24 24" fill="none" stroke="#E9E9F0" stroke-width="1.8" stroke-linecap="round" stroke-linejoin="round">
  <circle cx="12" cy="12" r="3"/>
  <path d="M19.4 15a1.7 1.7 0 0 0 .34 1.88l.06.06-1.86 1.86-.06-.06A1.7 1.7 0 0 0 16 18.4a1.7 1.7 0 0 0-1 .6 1.7 1.7 0 0 0-.4 1.1V20h-2.7v-.1a1.7 1.7 0 0 0-1.1-1.6 1.7 1.7 0 0 0-1.88.34l-.06.06L7 16.84l.06-.06A1.7 1.7 0 0 0 7.4 14.9a1.7 1.7 0 0 0-1.6-1H5.7v-2.7h.1a1.7 1.7 0 0 0 1.6-1 1.7 1.7 0 0 0-.34-1.88L7 8.26 8.86 6.4l.06.06A1.7 1.7 0 0 0 10.8 6.8a1.7 1.7 0 0 0 1-1.6v-.1h2.7v.1a1.7 1.7 0 0 0 1 1.6 1.7 1.7 0 0 0 1.88-.34l.06-.06 1.86 1.86-.06.06a1.7 1.7 0 0 0-.34 1.88 1.7 1.7 0 0 0 1.6 1h.1v2.7h-.1a1.7 1.7 0 0 0-1.1 1.1Z"/>
</svg>
